<mxfile host="app.diagrams.net" agent="Mozilla/5.0 (Windows NT 10.0; Win64; x64; rv:137.0) Gecko/20100101 Firefox/137.0" version="26.2.8">
  <diagram name="PÃ¡gina-1" id="aRTE3bzkcfPNq_XIPPsl">
    <mxGraphModel dx="2326" dy="2050" grid="1" gridSize="10" guides="1" tooltips="1" connect="1" arrows="1" fold="1" page="1" pageScale="1" pageWidth="827" pageHeight="1169" math="0" shadow="0">
      <root>
        <mxCell id="0" />
        <mxCell id="1" parent="0" />
        <mxCell id="1jccHF-EWlNYs-ElG2Ij-1" value="" style="whiteSpace=wrap;html=1;aspect=fixed;" parent="1" vertex="1">
          <mxGeometry x="150" y="250" width="480" height="480" as="geometry" />
        </mxCell>
        <mxCell id="1jccHF-EWlNYs-ElG2Ij-2" value="Controle" style="text;html=1;align=center;verticalAlign=middle;whiteSpace=wrap;rounded=0;" parent="1" vertex="1">
          <mxGeometry x="340" y="200" width="60" height="30" as="geometry" />
        </mxCell>
        <mxCell id="1jccHF-EWlNYs-ElG2Ij-3" value="" style="whiteSpace=wrap;html=1;aspect=fixed;" parent="1" vertex="1">
          <mxGeometry x="400" y="400" width="80" height="80" as="geometry" />
        </mxCell>
        <mxCell id="1jccHF-EWlNYs-ElG2Ij-4" value="" style="whiteSpace=wrap;html=1;aspect=fixed;" parent="1" vertex="1">
          <mxGeometry x="400" y="554" width="80" height="80" as="geometry" />
        </mxCell>
        <mxCell id="1jccHF-EWlNYs-ElG2Ij-5" value="" style="shape=waypoint;sketch=0;fillStyle=solid;size=6;pointerEvents=1;points=[];fillColor=none;resizable=0;rotatable=0;perimeter=centerPerimeter;snapToPoint=1;" parent="1" vertex="1">
          <mxGeometry x="110" y="500" width="20" height="20" as="geometry" />
        </mxCell>
        <mxCell id="1jccHF-EWlNYs-ElG2Ij-6" value="" style="endArrow=none;html=1;rounded=0;exitX=1;exitY=0.5;exitDx=0;exitDy=0;exitPerimeter=0;entryX=0.059;entryY=0.261;entryDx=0;entryDy=0;entryPerimeter=0;" parent="1" source="1jccHF-EWlNYs-ElG2Ij-5" edge="1">
          <mxGeometry width="50" height="50" relative="1" as="geometry">
            <mxPoint x="220" y="590" as="sourcePoint" />
            <mxPoint x="189.92499999999995" y="510.07499999999993" as="targetPoint" />
          </mxGeometry>
        </mxCell>
        <mxCell id="1jccHF-EWlNYs-ElG2Ij-7" value="" style="shape=waypoint;sketch=0;fillStyle=solid;size=6;pointerEvents=1;points=[];fillColor=none;resizable=0;rotatable=0;perimeter=centerPerimeter;snapToPoint=1;" parent="1" vertex="1">
          <mxGeometry x="110" y="595" width="20" height="20" as="geometry" />
        </mxCell>
        <mxCell id="1jccHF-EWlNYs-ElG2Ij-8" value="" style="endArrow=none;html=1;rounded=0;exitX=1;exitY=0.5;exitDx=0;exitDy=0;exitPerimeter=0;entryX=0.059;entryY=0.261;entryDx=0;entryDy=0;entryPerimeter=0;" parent="1" source="1jccHF-EWlNYs-ElG2Ij-7" edge="1">
          <mxGeometry width="50" height="50" relative="1" as="geometry">
            <mxPoint x="220" y="685" as="sourcePoint" />
            <mxPoint x="190" y="605" as="targetPoint" />
          </mxGeometry>
        </mxCell>
        <mxCell id="1jccHF-EWlNYs-ElG2Ij-9" value="CLK" style="text;html=1;align=center;verticalAlign=middle;whiteSpace=wrap;rounded=0;" parent="1" vertex="1">
          <mxGeometry x="51" y="319" width="60" height="30" as="geometry" />
        </mxCell>
        <mxCell id="1jccHF-EWlNYs-ElG2Ij-10" value="" style="shape=waypoint;sketch=0;fillStyle=solid;size=6;pointerEvents=1;points=[];fillColor=none;resizable=0;rotatable=0;perimeter=centerPerimeter;snapToPoint=1;" parent="1" vertex="1">
          <mxGeometry x="110" y="410" width="20" height="20" as="geometry" />
        </mxCell>
        <mxCell id="1jccHF-EWlNYs-ElG2Ij-11" value="" style="endArrow=none;html=1;rounded=0;exitX=1;exitY=0.5;exitDx=0;exitDy=0;exitPerimeter=0;entryX=0.059;entryY=0.261;entryDx=0;entryDy=0;entryPerimeter=0;" parent="1" source="1jccHF-EWlNYs-ElG2Ij-10" edge="1">
          <mxGeometry width="50" height="50" relative="1" as="geometry">
            <mxPoint x="220" y="500" as="sourcePoint" />
            <mxPoint x="190" y="420" as="targetPoint" />
          </mxGeometry>
        </mxCell>
        <mxCell id="1jccHF-EWlNYs-ElG2Ij-12" value="" style="shape=waypoint;sketch=0;fillStyle=solid;size=6;pointerEvents=1;points=[];fillColor=none;resizable=0;rotatable=0;perimeter=centerPerimeter;snapToPoint=1;" parent="1" vertex="1">
          <mxGeometry x="110" y="324" width="20" height="20" as="geometry" />
        </mxCell>
        <mxCell id="1jccHF-EWlNYs-ElG2Ij-13" value="" style="endArrow=none;html=1;rounded=0;exitX=1;exitY=0.5;exitDx=0;exitDy=0;exitPerimeter=0;entryX=0.059;entryY=0.261;entryDx=0;entryDy=0;entryPerimeter=0;" parent="1" source="1jccHF-EWlNYs-ElG2Ij-12" edge="1">
          <mxGeometry width="50" height="50" relative="1" as="geometry">
            <mxPoint x="220" y="414" as="sourcePoint" />
            <mxPoint x="190" y="334" as="targetPoint" />
          </mxGeometry>
        </mxCell>
        <mxCell id="1jccHF-EWlNYs-ElG2Ij-14" value="RESET" style="text;html=1;align=center;verticalAlign=middle;whiteSpace=wrap;rounded=0;" parent="1" vertex="1">
          <mxGeometry x="51" y="405" width="60" height="30" as="geometry" />
        </mxCell>
        <mxCell id="1jccHF-EWlNYs-ElG2Ij-15" value="INSTR" style="text;html=1;align=center;verticalAlign=middle;whiteSpace=wrap;rounded=0;" parent="1" vertex="1">
          <mxGeometry x="51" y="495" width="60" height="30" as="geometry" />
        </mxCell>
        <mxCell id="1jccHF-EWlNYs-ElG2Ij-16" value="ALUFlags" style="text;html=1;align=center;verticalAlign=middle;whiteSpace=wrap;rounded=0;" parent="1" vertex="1">
          <mxGeometry x="51" y="590" width="60" height="30" as="geometry" />
        </mxCell>
        <mxCell id="1jccHF-EWlNYs-ElG2Ij-17" value="Decoder" style="text;html=1;align=center;verticalAlign=middle;whiteSpace=wrap;rounded=0;" parent="1" vertex="1">
          <mxGeometry x="410" y="425" width="60" height="30" as="geometry" />
        </mxCell>
        <mxCell id="1jccHF-EWlNYs-ElG2Ij-18" value="Condlogic" style="text;html=1;align=center;verticalAlign=middle;whiteSpace=wrap;rounded=0;" parent="1" vertex="1">
          <mxGeometry x="410" y="580" width="60" height="30" as="geometry" />
        </mxCell>
        <mxCell id="1jccHF-EWlNYs-ElG2Ij-19" value="" style="whiteSpace=wrap;html=1;aspect=fixed;" parent="1" vertex="1">
          <mxGeometry x="1021" y="250" width="480" height="480" as="geometry" />
        </mxCell>
        <mxCell id="1jccHF-EWlNYs-ElG2Ij-20" value="Datapath" style="text;html=1;align=center;verticalAlign=middle;whiteSpace=wrap;rounded=0;" parent="1" vertex="1">
          <mxGeometry x="1231" y="200" width="60" height="30" as="geometry" />
        </mxCell>
        <mxCell id="1jccHF-EWlNYs-ElG2Ij-21" value="" style="shape=waypoint;sketch=0;fillStyle=solid;size=6;pointerEvents=1;points=[];fillColor=none;resizable=0;rotatable=0;perimeter=centerPerimeter;snapToPoint=1;" parent="1" vertex="1">
          <mxGeometry x="971" y="457.5" width="20" height="20" as="geometry" />
        </mxCell>
        <mxCell id="1jccHF-EWlNYs-ElG2Ij-22" value="" style="endArrow=none;html=1;rounded=0;exitX=1;exitY=0.5;exitDx=0;exitDy=0;exitPerimeter=0;entryX=0.059;entryY=0.261;entryDx=0;entryDy=0;entryPerimeter=0;" parent="1" source="1jccHF-EWlNYs-ElG2Ij-21" edge="1">
          <mxGeometry width="50" height="50" relative="1" as="geometry">
            <mxPoint x="1081" y="547.5" as="sourcePoint" />
            <mxPoint x="1050.925" y="467.57499999999993" as="targetPoint" />
          </mxGeometry>
        </mxCell>
        <mxCell id="1jccHF-EWlNYs-ElG2Ij-23" value="" style="shape=waypoint;sketch=0;fillStyle=solid;size=6;pointerEvents=1;points=[];fillColor=none;resizable=0;rotatable=0;perimeter=centerPerimeter;snapToPoint=1;" parent="1" vertex="1">
          <mxGeometry x="971" y="545.5" width="20" height="20" as="geometry" />
        </mxCell>
        <mxCell id="1jccHF-EWlNYs-ElG2Ij-24" value="" style="endArrow=none;html=1;rounded=0;exitX=1;exitY=0.5;exitDx=0;exitDy=0;exitPerimeter=0;entryX=0.059;entryY=0.261;entryDx=0;entryDy=0;entryPerimeter=0;" parent="1" source="1jccHF-EWlNYs-ElG2Ij-23" edge="1">
          <mxGeometry width="50" height="50" relative="1" as="geometry">
            <mxPoint x="1081" y="635.5" as="sourcePoint" />
            <mxPoint x="1051" y="555.5" as="targetPoint" />
          </mxGeometry>
        </mxCell>
        <mxCell id="1jccHF-EWlNYs-ElG2Ij-25" value="" style="shape=waypoint;sketch=0;fillStyle=solid;size=6;pointerEvents=1;points=[];fillColor=none;resizable=0;rotatable=0;perimeter=centerPerimeter;snapToPoint=1;" parent="1" vertex="1">
          <mxGeometry x="971" y="360.5" width="20" height="20" as="geometry" />
        </mxCell>
        <mxCell id="1jccHF-EWlNYs-ElG2Ij-26" value="" style="endArrow=none;html=1;rounded=0;exitX=1;exitY=0.5;exitDx=0;exitDy=0;exitPerimeter=0;entryX=0.059;entryY=0.261;entryDx=0;entryDy=0;entryPerimeter=0;" parent="1" source="1jccHF-EWlNYs-ElG2Ij-25" edge="1">
          <mxGeometry width="50" height="50" relative="1" as="geometry">
            <mxPoint x="1081" y="450.5" as="sourcePoint" />
            <mxPoint x="1051" y="370.5" as="targetPoint" />
          </mxGeometry>
        </mxCell>
        <mxCell id="1jccHF-EWlNYs-ElG2Ij-27" value="" style="shape=waypoint;sketch=0;fillStyle=solid;size=6;pointerEvents=1;points=[];fillColor=none;resizable=0;rotatable=0;perimeter=centerPerimeter;snapToPoint=1;" parent="1" vertex="1">
          <mxGeometry x="971" y="274.5" width="20" height="20" as="geometry" />
        </mxCell>
        <mxCell id="1jccHF-EWlNYs-ElG2Ij-28" value="" style="endArrow=none;html=1;rounded=0;exitX=1;exitY=0.5;exitDx=0;exitDy=0;exitPerimeter=0;entryX=0.059;entryY=0.261;entryDx=0;entryDy=0;entryPerimeter=0;" parent="1" source="1jccHF-EWlNYs-ElG2Ij-27" edge="1">
          <mxGeometry width="50" height="50" relative="1" as="geometry">
            <mxPoint x="1081" y="364.5" as="sourcePoint" />
            <mxPoint x="1051" y="284.5" as="targetPoint" />
          </mxGeometry>
        </mxCell>
        <mxCell id="1jccHF-EWlNYs-ElG2Ij-29" value="" style="shape=waypoint;sketch=0;fillStyle=solid;size=6;pointerEvents=1;points=[];fillColor=none;resizable=0;rotatable=0;perimeter=centerPerimeter;snapToPoint=1;" parent="1" vertex="1">
          <mxGeometry x="971" y="491" width="20" height="20" as="geometry" />
        </mxCell>
        <mxCell id="1jccHF-EWlNYs-ElG2Ij-30" value="" style="endArrow=none;html=1;rounded=0;exitX=1;exitY=0.5;exitDx=0;exitDy=0;exitPerimeter=0;entryX=0.059;entryY=0.261;entryDx=0;entryDy=0;entryPerimeter=0;" parent="1" source="1jccHF-EWlNYs-ElG2Ij-29" edge="1">
          <mxGeometry width="50" height="50" relative="1" as="geometry">
            <mxPoint x="1081" y="581" as="sourcePoint" />
            <mxPoint x="1050.925" y="501.07499999999993" as="targetPoint" />
          </mxGeometry>
        </mxCell>
        <mxCell id="1jccHF-EWlNYs-ElG2Ij-31" value="" style="shape=waypoint;sketch=0;fillStyle=solid;size=6;pointerEvents=1;points=[];fillColor=none;resizable=0;rotatable=0;perimeter=centerPerimeter;snapToPoint=1;" parent="1" vertex="1">
          <mxGeometry x="971" y="586" width="20" height="20" as="geometry" />
        </mxCell>
        <mxCell id="1jccHF-EWlNYs-ElG2Ij-32" value="" style="endArrow=none;html=1;rounded=0;exitX=1;exitY=0.5;exitDx=0;exitDy=0;exitPerimeter=0;entryX=0.059;entryY=0.261;entryDx=0;entryDy=0;entryPerimeter=0;" parent="1" source="1jccHF-EWlNYs-ElG2Ij-31" edge="1">
          <mxGeometry width="50" height="50" relative="1" as="geometry">
            <mxPoint x="1081" y="676" as="sourcePoint" />
            <mxPoint x="1051" y="596" as="targetPoint" />
          </mxGeometry>
        </mxCell>
        <mxCell id="1jccHF-EWlNYs-ElG2Ij-33" value="" style="shape=waypoint;sketch=0;fillStyle=solid;size=6;pointerEvents=1;points=[];fillColor=none;resizable=0;rotatable=0;perimeter=centerPerimeter;snapToPoint=1;" parent="1" vertex="1">
          <mxGeometry x="971" y="401" width="20" height="20" as="geometry" />
        </mxCell>
        <mxCell id="1jccHF-EWlNYs-ElG2Ij-34" value="" style="endArrow=none;html=1;rounded=0;exitX=1;exitY=0.5;exitDx=0;exitDy=0;exitPerimeter=0;entryX=0.059;entryY=0.261;entryDx=0;entryDy=0;entryPerimeter=0;" parent="1" source="1jccHF-EWlNYs-ElG2Ij-33" edge="1">
          <mxGeometry width="50" height="50" relative="1" as="geometry">
            <mxPoint x="1081" y="491" as="sourcePoint" />
            <mxPoint x="1051" y="411" as="targetPoint" />
          </mxGeometry>
        </mxCell>
        <mxCell id="1jccHF-EWlNYs-ElG2Ij-35" value="" style="shape=waypoint;sketch=0;fillStyle=solid;size=6;pointerEvents=1;points=[];fillColor=none;resizable=0;rotatable=0;perimeter=centerPerimeter;snapToPoint=1;" parent="1" vertex="1">
          <mxGeometry x="971" y="315" width="20" height="20" as="geometry" />
        </mxCell>
        <mxCell id="1jccHF-EWlNYs-ElG2Ij-36" value="" style="endArrow=none;html=1;rounded=0;exitX=1;exitY=0.5;exitDx=0;exitDy=0;exitPerimeter=0;entryX=0.059;entryY=0.261;entryDx=0;entryDy=0;entryPerimeter=0;" parent="1" source="1jccHF-EWlNYs-ElG2Ij-35" edge="1">
          <mxGeometry width="50" height="50" relative="1" as="geometry">
            <mxPoint x="1081" y="405" as="sourcePoint" />
            <mxPoint x="1051" y="325" as="targetPoint" />
          </mxGeometry>
        </mxCell>
        <mxCell id="1jccHF-EWlNYs-ElG2Ij-37" value="" style="shape=waypoint;sketch=0;fillStyle=solid;size=6;pointerEvents=1;points=[];fillColor=none;resizable=0;rotatable=0;perimeter=centerPerimeter;snapToPoint=1;" parent="1" vertex="1">
          <mxGeometry x="971" y="432" width="20" height="20" as="geometry" />
        </mxCell>
        <mxCell id="1jccHF-EWlNYs-ElG2Ij-38" value="" style="endArrow=none;html=1;rounded=0;exitX=1;exitY=0.5;exitDx=0;exitDy=0;exitPerimeter=0;entryX=0.059;entryY=0.261;entryDx=0;entryDy=0;entryPerimeter=0;" parent="1" source="1jccHF-EWlNYs-ElG2Ij-37" edge="1">
          <mxGeometry width="50" height="50" relative="1" as="geometry">
            <mxPoint x="1081" y="522" as="sourcePoint" />
            <mxPoint x="1050.925" y="442.07499999999993" as="targetPoint" />
          </mxGeometry>
        </mxCell>
        <mxCell id="1jccHF-EWlNYs-ElG2Ij-39" value="" style="shape=waypoint;sketch=0;fillStyle=solid;size=6;pointerEvents=1;points=[];fillColor=none;resizable=0;rotatable=0;perimeter=centerPerimeter;snapToPoint=1;" parent="1" vertex="1">
          <mxGeometry x="1541" y="410" width="20" height="20" as="geometry" />
        </mxCell>
        <mxCell id="1jccHF-EWlNYs-ElG2Ij-40" value="" style="endArrow=none;html=1;rounded=0;exitX=1;exitY=0.5;exitDx=0;exitDy=0;exitPerimeter=0;entryX=1;entryY=0.5;entryDx=0;entryDy=0;entryPerimeter=0;" parent="1" target="1jccHF-EWlNYs-ElG2Ij-39" edge="1">
          <mxGeometry width="50" height="50" relative="1" as="geometry">
            <mxPoint x="1461" y="419.5" as="sourcePoint" />
            <mxPoint x="1491" y="499.5" as="targetPoint" />
          </mxGeometry>
        </mxCell>
        <mxCell id="1jccHF-EWlNYs-ElG2Ij-41" value="" style="shape=waypoint;sketch=0;fillStyle=solid;size=6;pointerEvents=1;points=[];fillColor=none;resizable=0;rotatable=0;perimeter=centerPerimeter;snapToPoint=1;" parent="1" vertex="1">
          <mxGeometry x="1541" y="471" width="20" height="20" as="geometry" />
        </mxCell>
        <mxCell id="1jccHF-EWlNYs-ElG2Ij-42" value="" style="endArrow=none;html=1;rounded=0;exitX=1;exitY=0.5;exitDx=0;exitDy=0;exitPerimeter=0;entryX=1;entryY=0.5;entryDx=0;entryDy=0;entryPerimeter=0;" parent="1" target="1jccHF-EWlNYs-ElG2Ij-41" edge="1">
          <mxGeometry width="50" height="50" relative="1" as="geometry">
            <mxPoint x="1461" y="480.5" as="sourcePoint" />
            <mxPoint x="1491" y="560.5" as="targetPoint" />
          </mxGeometry>
        </mxCell>
        <mxCell id="1jccHF-EWlNYs-ElG2Ij-43" value="" style="shape=waypoint;sketch=0;fillStyle=solid;size=6;pointerEvents=1;points=[];fillColor=none;resizable=0;rotatable=0;perimeter=centerPerimeter;snapToPoint=1;" parent="1" vertex="1">
          <mxGeometry x="1541" y="525" width="20" height="20" as="geometry" />
        </mxCell>
        <mxCell id="1jccHF-EWlNYs-ElG2Ij-44" value="" style="endArrow=none;html=1;rounded=0;exitX=1;exitY=0.5;exitDx=0;exitDy=0;exitPerimeter=0;entryX=1;entryY=0.5;entryDx=0;entryDy=0;entryPerimeter=0;" parent="1" target="1jccHF-EWlNYs-ElG2Ij-43" edge="1">
          <mxGeometry width="50" height="50" relative="1" as="geometry">
            <mxPoint x="1461" y="534.5" as="sourcePoint" />
            <mxPoint x="1491" y="614.5" as="targetPoint" />
          </mxGeometry>
        </mxCell>
        <mxCell id="1jccHF-EWlNYs-ElG2Ij-45" value="ALUFlags" style="text;html=1;align=center;verticalAlign=middle;whiteSpace=wrap;rounded=0;" parent="1" vertex="1">
          <mxGeometry x="1581" y="410" width="60" height="30" as="geometry" />
        </mxCell>
        <mxCell id="1jccHF-EWlNYs-ElG2Ij-46" value="PC" style="text;html=1;align=center;verticalAlign=middle;whiteSpace=wrap;rounded=0;" parent="1" vertex="1">
          <mxGeometry x="1581" y="465" width="60" height="30" as="geometry" />
        </mxCell>
        <mxCell id="1jccHF-EWlNYs-ElG2Ij-47" value="ALUResult" style="text;html=1;align=center;verticalAlign=middle;whiteSpace=wrap;rounded=0;" parent="1" vertex="1">
          <mxGeometry x="1581" y="520" width="60" height="30" as="geometry" />
        </mxCell>
        <mxCell id="1jccHF-EWlNYs-ElG2Ij-48" value="" style="shape=waypoint;sketch=0;fillStyle=solid;size=6;pointerEvents=1;points=[];fillColor=none;resizable=0;rotatable=0;perimeter=centerPerimeter;snapToPoint=1;" parent="1" vertex="1">
          <mxGeometry x="1541" y="585" width="20" height="20" as="geometry" />
        </mxCell>
        <mxCell id="1jccHF-EWlNYs-ElG2Ij-49" value="" style="endArrow=none;html=1;rounded=0;exitX=1;exitY=0.5;exitDx=0;exitDy=0;exitPerimeter=0;entryX=1;entryY=0.5;entryDx=0;entryDy=0;entryPerimeter=0;" parent="1" target="1jccHF-EWlNYs-ElG2Ij-48" edge="1">
          <mxGeometry width="50" height="50" relative="1" as="geometry">
            <mxPoint x="1461" y="594.5" as="sourcePoint" />
            <mxPoint x="1491" y="674.5" as="targetPoint" />
          </mxGeometry>
        </mxCell>
        <mxCell id="1jccHF-EWlNYs-ElG2Ij-50" value="WriteData" style="text;html=1;align=center;verticalAlign=middle;whiteSpace=wrap;rounded=0;" parent="1" vertex="1">
          <mxGeometry x="1581" y="580" width="60" height="30" as="geometry" />
        </mxCell>
        <mxCell id="1jccHF-EWlNYs-ElG2Ij-51" value="CLK" style="text;html=1;align=center;verticalAlign=middle;whiteSpace=wrap;rounded=0;" parent="1" vertex="1">
          <mxGeometry x="911" y="269.5" width="60" height="30" as="geometry" />
        </mxCell>
        <mxCell id="1jccHF-EWlNYs-ElG2Ij-52" value="RESET" style="text;html=1;align=center;verticalAlign=middle;whiteSpace=wrap;rounded=0;" parent="1" vertex="1">
          <mxGeometry x="911" y="310" width="60" height="30" as="geometry" />
        </mxCell>
        <mxCell id="1jccHF-EWlNYs-ElG2Ij-53" value="RegSrc&lt;div&gt;[1:0]&lt;/div&gt;" style="text;html=1;align=center;verticalAlign=middle;whiteSpace=wrap;rounded=0;" parent="1" vertex="1">
          <mxGeometry x="911" y="355.5" width="60" height="30" as="geometry" />
        </mxCell>
        <mxCell id="1jccHF-EWlNYs-ElG2Ij-54" value="RegWrite" style="text;html=1;align=center;verticalAlign=middle;whiteSpace=wrap;rounded=0;" parent="1" vertex="1">
          <mxGeometry x="911" y="396" width="60" height="30" as="geometry" />
        </mxCell>
        <mxCell id="1jccHF-EWlNYs-ElG2Ij-55" value="ImmSrc&lt;div&gt;[1:0]&lt;/div&gt;" style="text;html=1;align=center;verticalAlign=middle;whiteSpace=wrap;rounded=0;" parent="1" vertex="1">
          <mxGeometry x="911" y="425" width="60" height="30" as="geometry" />
        </mxCell>
        <mxCell id="1jccHF-EWlNYs-ElG2Ij-56" value="" style="shape=waypoint;sketch=0;fillStyle=solid;size=6;pointerEvents=1;points=[];fillColor=none;resizable=0;rotatable=0;perimeter=centerPerimeter;snapToPoint=1;" parent="1" vertex="1">
          <mxGeometry x="670" y="274.5" width="20" height="20" as="geometry" />
        </mxCell>
        <mxCell id="1jccHF-EWlNYs-ElG2Ij-57" value="" style="endArrow=none;html=1;rounded=0;exitX=1;exitY=0.5;exitDx=0;exitDy=0;exitPerimeter=0;entryX=1;entryY=0.5;entryDx=0;entryDy=0;entryPerimeter=0;" parent="1" target="1jccHF-EWlNYs-ElG2Ij-56" edge="1">
          <mxGeometry width="50" height="50" relative="1" as="geometry">
            <mxPoint x="590" y="284" as="sourcePoint" />
            <mxPoint x="620" y="364" as="targetPoint" />
          </mxGeometry>
        </mxCell>
        <mxCell id="1jccHF-EWlNYs-ElG2Ij-58" value="" style="shape=waypoint;sketch=0;fillStyle=solid;size=6;pointerEvents=1;points=[];fillColor=none;resizable=0;rotatable=0;perimeter=centerPerimeter;snapToPoint=1;" parent="1" vertex="1">
          <mxGeometry x="670" y="335.5" width="20" height="20" as="geometry" />
        </mxCell>
        <mxCell id="1jccHF-EWlNYs-ElG2Ij-59" value="" style="endArrow=none;html=1;rounded=0;exitX=1;exitY=0.5;exitDx=0;exitDy=0;exitPerimeter=0;entryX=1;entryY=0.5;entryDx=0;entryDy=0;entryPerimeter=0;" parent="1" target="1jccHF-EWlNYs-ElG2Ij-58" edge="1">
          <mxGeometry width="50" height="50" relative="1" as="geometry">
            <mxPoint x="590" y="345" as="sourcePoint" />
            <mxPoint x="620" y="425" as="targetPoint" />
          </mxGeometry>
        </mxCell>
        <mxCell id="1jccHF-EWlNYs-ElG2Ij-60" value="" style="shape=waypoint;sketch=0;fillStyle=solid;size=6;pointerEvents=1;points=[];fillColor=none;resizable=0;rotatable=0;perimeter=centerPerimeter;snapToPoint=1;" parent="1" vertex="1">
          <mxGeometry x="670" y="389.5" width="20" height="20" as="geometry" />
        </mxCell>
        <mxCell id="1jccHF-EWlNYs-ElG2Ij-61" value="" style="endArrow=none;html=1;rounded=0;exitX=1;exitY=0.5;exitDx=0;exitDy=0;exitPerimeter=0;entryX=1;entryY=0.5;entryDx=0;entryDy=0;entryPerimeter=0;" parent="1" target="1jccHF-EWlNYs-ElG2Ij-60" edge="1">
          <mxGeometry width="50" height="50" relative="1" as="geometry">
            <mxPoint x="590" y="399" as="sourcePoint" />
            <mxPoint x="620" y="479" as="targetPoint" />
          </mxGeometry>
        </mxCell>
        <mxCell id="1jccHF-EWlNYs-ElG2Ij-62" value="RegSrc" style="text;html=1;align=center;verticalAlign=middle;whiteSpace=wrap;rounded=0;" parent="1" vertex="1">
          <mxGeometry x="710" y="274.5" width="60" height="30" as="geometry" />
        </mxCell>
        <mxCell id="1jccHF-EWlNYs-ElG2Ij-63" value="RegWrite" style="text;html=1;align=center;verticalAlign=middle;whiteSpace=wrap;rounded=0;" parent="1" vertex="1">
          <mxGeometry x="710" y="329.5" width="60" height="30" as="geometry" />
        </mxCell>
        <mxCell id="1jccHF-EWlNYs-ElG2Ij-64" value="ImmSrc" style="text;html=1;align=center;verticalAlign=middle;whiteSpace=wrap;rounded=0;" parent="1" vertex="1">
          <mxGeometry x="710" y="384.5" width="60" height="30" as="geometry" />
        </mxCell>
        <mxCell id="1jccHF-EWlNYs-ElG2Ij-65" value="" style="shape=waypoint;sketch=0;fillStyle=solid;size=6;pointerEvents=1;points=[];fillColor=none;resizable=0;rotatable=0;perimeter=centerPerimeter;snapToPoint=1;" parent="1" vertex="1">
          <mxGeometry x="670" y="449.5" width="20" height="20" as="geometry" />
        </mxCell>
        <mxCell id="1jccHF-EWlNYs-ElG2Ij-66" value="" style="endArrow=none;html=1;rounded=0;exitX=1;exitY=0.5;exitDx=0;exitDy=0;exitPerimeter=0;entryX=1;entryY=0.5;entryDx=0;entryDy=0;entryPerimeter=0;" parent="1" target="1jccHF-EWlNYs-ElG2Ij-65" edge="1">
          <mxGeometry width="50" height="50" relative="1" as="geometry">
            <mxPoint x="590" y="459" as="sourcePoint" />
            <mxPoint x="620" y="539" as="targetPoint" />
          </mxGeometry>
        </mxCell>
        <mxCell id="1jccHF-EWlNYs-ElG2Ij-67" value="ALUSrc" style="text;html=1;align=center;verticalAlign=middle;whiteSpace=wrap;rounded=0;" parent="1" vertex="1">
          <mxGeometry x="710" y="444.5" width="60" height="30" as="geometry" />
        </mxCell>
        <mxCell id="1jccHF-EWlNYs-ElG2Ij-68" value="" style="shape=waypoint;sketch=0;fillStyle=solid;size=6;pointerEvents=1;points=[];fillColor=none;resizable=0;rotatable=0;perimeter=centerPerimeter;snapToPoint=1;" parent="1" vertex="1">
          <mxGeometry x="670" y="500" width="20" height="20" as="geometry" />
        </mxCell>
        <mxCell id="1jccHF-EWlNYs-ElG2Ij-69" value="" style="endArrow=none;html=1;rounded=0;exitX=1;exitY=0.5;exitDx=0;exitDy=0;exitPerimeter=0;entryX=1;entryY=0.5;entryDx=0;entryDy=0;entryPerimeter=0;" parent="1" target="1jccHF-EWlNYs-ElG2Ij-68" edge="1">
          <mxGeometry width="50" height="50" relative="1" as="geometry">
            <mxPoint x="590" y="509.5" as="sourcePoint" />
            <mxPoint x="620" y="589.5" as="targetPoint" />
          </mxGeometry>
        </mxCell>
        <mxCell id="1jccHF-EWlNYs-ElG2Ij-70" value="ALUControl" style="text;html=1;align=center;verticalAlign=middle;whiteSpace=wrap;rounded=0;" parent="1" vertex="1">
          <mxGeometry x="710" y="495" width="60" height="30" as="geometry" />
        </mxCell>
        <mxCell id="1jccHF-EWlNYs-ElG2Ij-73" value="MemWrite" style="text;html=1;align=center;verticalAlign=middle;whiteSpace=wrap;rounded=0;" parent="1" vertex="1">
          <mxGeometry x="710" y="540.5" width="60" height="30" as="geometry" />
        </mxCell>
        <mxCell id="1jccHF-EWlNYs-ElG2Ij-76" value="MemtoReg" style="text;html=1;align=center;verticalAlign=middle;whiteSpace=wrap;rounded=0;" parent="1" vertex="1">
          <mxGeometry x="710" y="586" width="60" height="30" as="geometry" />
        </mxCell>
        <mxCell id="1jccHF-EWlNYs-ElG2Ij-79" value="PCSrc" style="text;html=1;align=center;verticalAlign=middle;whiteSpace=wrap;rounded=0;" parent="1" vertex="1">
          <mxGeometry x="710" y="634" width="60" height="30" as="geometry" />
        </mxCell>
        <mxCell id="KPxbSoKMguSiklrnjxVH-1" value="" style="whiteSpace=wrap;html=1;" vertex="1" parent="1">
          <mxGeometry x="73" y="1140" width="1580" height="1590" as="geometry" />
        </mxCell>
        <mxCell id="KPxbSoKMguSiklrnjxVH-3" value="" style="whiteSpace=wrap;html=1;" vertex="1" parent="1">
          <mxGeometry x="141" y="1200" width="1410" height="1470" as="geometry" />
        </mxCell>
        <mxCell id="KPxbSoKMguSiklrnjxVH-4" value="CLK" style="text;html=1;align=center;verticalAlign=middle;whiteSpace=wrap;rounded=0;fillColor=none;" vertex="1" parent="1">
          <mxGeometry x="71" y="1260" width="60" height="30" as="geometry" />
        </mxCell>
        <mxCell id="KPxbSoKMguSiklrnjxVH-7" value="" style="shape=waypoint;sketch=0;fillStyle=solid;size=6;pointerEvents=1;points=[];fillColor=none;resizable=0;rotatable=0;perimeter=centerPerimeter;snapToPoint=1;" vertex="1" parent="1">
          <mxGeometry x="91" y="1290" width="20" height="20" as="geometry" />
        </mxCell>
        <mxCell id="KPxbSoKMguSiklrnjxVH-8" value="" style="shape=waypoint;sketch=0;fillStyle=solid;size=6;pointerEvents=1;points=[];fillColor=none;resizable=0;rotatable=0;perimeter=centerPerimeter;snapToPoint=1;" vertex="1" parent="1">
          <mxGeometry x="91" y="1510" width="20" height="20" as="geometry" />
        </mxCell>
        <mxCell id="KPxbSoKMguSiklrnjxVH-9" value="TESTBENCH" style="text;strokeColor=none;fillColor=none;html=1;fontSize=24;fontStyle=1;verticalAlign=middle;align=center;" vertex="1" parent="1">
          <mxGeometry x="71" y="1100" width="190" height="40" as="geometry" />
        </mxCell>
        <mxCell id="KPxbSoKMguSiklrnjxVH-10" value="TOP" style="text;strokeColor=none;fillColor=none;html=1;fontSize=24;fontStyle=1;verticalAlign=middle;align=center;" vertex="1" parent="1">
          <mxGeometry x="141" y="1160" width="190" height="40" as="geometry" />
        </mxCell>
        <mxCell id="KPxbSoKMguSiklrnjxVH-11" value="RESET" style="text;html=1;align=center;verticalAlign=middle;whiteSpace=wrap;rounded=0;fillColor=none;" vertex="1" parent="1">
          <mxGeometry x="71" y="1480" width="60" height="30" as="geometry" />
        </mxCell>
        <mxCell id="KPxbSoKMguSiklrnjxVH-12" value="" style="rounded=0;whiteSpace=wrap;html=1;" vertex="1" parent="1">
          <mxGeometry x="191" y="1280" width="120" height="60" as="geometry" />
        </mxCell>
        <mxCell id="KPxbSoKMguSiklrnjxVH-13" value="" style="rounded=0;whiteSpace=wrap;html=1;" vertex="1" parent="1">
          <mxGeometry x="191" y="1450" width="120" height="60" as="geometry" />
        </mxCell>
        <mxCell id="KPxbSoKMguSiklrnjxVH-14" value="DMEM" style="text;strokeColor=none;fillColor=none;html=1;fontSize=24;fontStyle=1;verticalAlign=middle;align=center;" vertex="1" parent="1">
          <mxGeometry x="201" y="1239" width="100" height="40" as="geometry" />
        </mxCell>
        <mxCell id="KPxbSoKMguSiklrnjxVH-15" value="IMEM" style="text;strokeColor=none;fillColor=none;html=1;fontSize=24;fontStyle=1;verticalAlign=middle;align=center;" vertex="1" parent="1">
          <mxGeometry x="201" y="1409" width="100" height="40" as="geometry" />
        </mxCell>
        <mxCell id="KPxbSoKMguSiklrnjxVH-19" value="PC" style="text;html=1;align=center;verticalAlign=middle;whiteSpace=wrap;rounded=0;fillColor=none;" vertex="1" parent="1">
          <mxGeometry x="221" y="1570" width="60" height="30" as="geometry" />
        </mxCell>
        <mxCell id="KPxbSoKMguSiklrnjxVH-20" value="" style="shape=waypoint;sketch=0;fillStyle=solid;size=6;pointerEvents=1;points=[];fillColor=none;resizable=0;rotatable=0;perimeter=centerPerimeter;snapToPoint=1;" vertex="1" parent="1">
          <mxGeometry x="241" y="1600" width="20" height="20" as="geometry" />
        </mxCell>
        <mxCell id="KPxbSoKMguSiklrnjxVH-21" value="" style="shape=waypoint;sketch=0;fillStyle=solid;size=6;pointerEvents=1;points=[];fillColor=none;resizable=0;rotatable=0;perimeter=centerPerimeter;snapToPoint=1;" vertex="1" parent="1">
          <mxGeometry x="241" y="1764" width="20" height="20" as="geometry" />
        </mxCell>
        <mxCell id="KPxbSoKMguSiklrnjxVH-22" value="ReadData" style="text;html=1;align=center;verticalAlign=middle;whiteSpace=wrap;rounded=0;fillColor=none;" vertex="1" parent="1">
          <mxGeometry x="221" y="1734" width="60" height="30" as="geometry" />
        </mxCell>
        <mxCell id="KPxbSoKMguSiklrnjxVH-23" value="" style="shape=waypoint;sketch=0;fillStyle=solid;size=6;pointerEvents=1;points=[];fillColor=none;resizable=0;rotatable=0;perimeter=centerPerimeter;snapToPoint=1;" vertex="1" parent="1">
          <mxGeometry x="241" y="1674" width="20" height="20" as="geometry" />
        </mxCell>
        <mxCell id="KPxbSoKMguSiklrnjxVH-24" value="Instr" style="text;html=1;align=center;verticalAlign=middle;whiteSpace=wrap;rounded=0;fillColor=none;" vertex="1" parent="1">
          <mxGeometry x="221" y="1644" width="60" height="30" as="geometry" />
        </mxCell>
        <mxCell id="KPxbSoKMguSiklrnjxVH-26" value="" style="rounded=0;whiteSpace=wrap;html=1;direction=south;" vertex="1" parent="1">
          <mxGeometry x="363" y="1280" width="880" height="1330" as="geometry" />
        </mxCell>
        <mxCell id="KPxbSoKMguSiklrnjxVH-27" value="ARM" style="text;strokeColor=none;fillColor=none;html=1;fontSize=24;fontStyle=1;verticalAlign=middle;align=center;" vertex="1" parent="1">
          <mxGeometry x="533" y="1239" width="100" height="40" as="geometry" />
        </mxCell>
        <mxCell id="1jccHF-EWlNYs-ElG2Ij-71" value="" style="shape=waypoint;sketch=0;fillStyle=solid;size=6;pointerEvents=1;points=[];fillColor=none;resizable=0;rotatable=0;perimeter=centerPerimeter;snapToPoint=1;" parent="1" vertex="1">
          <mxGeometry x="1273" y="1571.25" width="20" height="20" as="geometry" />
        </mxCell>
        <mxCell id="1jccHF-EWlNYs-ElG2Ij-72" value="" style="endArrow=none;html=1;rounded=0;exitX=1;exitY=0.5;exitDx=0;exitDy=0;exitPerimeter=0;entryX=1;entryY=0.5;entryDx=0;entryDy=0;entryPerimeter=0;" parent="1" target="1jccHF-EWlNYs-ElG2Ij-71" edge="1">
          <mxGeometry width="50" height="50" relative="1" as="geometry">
            <mxPoint x="1193" y="1580.75" as="sourcePoint" />
            <mxPoint x="1223" y="1660.75" as="targetPoint" />
          </mxGeometry>
        </mxCell>
        <mxCell id="1jccHF-EWlNYs-ElG2Ij-74" value="" style="shape=waypoint;sketch=0;fillStyle=solid;size=6;pointerEvents=1;points=[];fillColor=none;resizable=0;rotatable=0;perimeter=centerPerimeter;snapToPoint=1;" parent="1" vertex="1">
          <mxGeometry x="1273" y="1708.75" width="20" height="20" as="geometry" />
        </mxCell>
        <mxCell id="1jccHF-EWlNYs-ElG2Ij-75" value="" style="endArrow=none;html=1;rounded=0;exitX=1;exitY=0.5;exitDx=0;exitDy=0;exitPerimeter=0;entryX=1;entryY=0.5;entryDx=0;entryDy=0;entryPerimeter=0;" parent="1" target="1jccHF-EWlNYs-ElG2Ij-74" edge="1">
          <mxGeometry width="50" height="50" relative="1" as="geometry">
            <mxPoint x="1193" y="1718.25" as="sourcePoint" />
            <mxPoint x="1223" y="1798.25" as="targetPoint" />
          </mxGeometry>
        </mxCell>
        <mxCell id="1jccHF-EWlNYs-ElG2Ij-77" value="" style="shape=waypoint;sketch=0;fillStyle=solid;size=6;pointerEvents=1;points=[];fillColor=none;resizable=0;rotatable=0;perimeter=centerPerimeter;snapToPoint=1;" parent="1" vertex="1">
          <mxGeometry x="1273" y="1844.75" width="20" height="20" as="geometry" />
        </mxCell>
        <mxCell id="1jccHF-EWlNYs-ElG2Ij-78" value="" style="endArrow=none;html=1;rounded=0;exitX=1;exitY=0.5;exitDx=0;exitDy=0;exitPerimeter=0;entryX=1;entryY=0.5;entryDx=0;entryDy=0;entryPerimeter=0;" parent="1" edge="1">
          <mxGeometry width="50" height="50" relative="1" as="geometry">
            <mxPoint x="1193" y="1855.25" as="sourcePoint" />
            <mxPoint x="1283" y="1855.75" as="targetPoint" />
          </mxGeometry>
        </mxCell>
        <mxCell id="KPxbSoKMguSiklrnjxVH-28" value="ALUResult" style="text;html=1;align=center;verticalAlign=middle;whiteSpace=wrap;rounded=0;fillColor=none;" vertex="1" parent="1">
          <mxGeometry x="1293" y="1566.25" width="60" height="30" as="geometry" />
        </mxCell>
        <mxCell id="KPxbSoKMguSiklrnjxVH-29" value="WriteData" style="text;html=1;align=center;verticalAlign=middle;whiteSpace=wrap;rounded=0;fillColor=none;" vertex="1" parent="1">
          <mxGeometry x="1293" y="1703.75" width="60" height="30" as="geometry" />
        </mxCell>
        <mxCell id="KPxbSoKMguSiklrnjxVH-30" value="MemWrite" style="text;html=1;align=center;verticalAlign=middle;whiteSpace=wrap;rounded=0;fillColor=none;" vertex="1" parent="1">
          <mxGeometry x="1293" y="1839.75" width="60" height="30" as="geometry" />
        </mxCell>
        <mxCell id="KPxbSoKMguSiklrnjxVH-35" value="" style="shape=waypoint;sketch=0;fillStyle=solid;size=6;pointerEvents=1;points=[];fillColor=none;resizable=0;rotatable=0;perimeter=centerPerimeter;snapToPoint=1;" vertex="1" parent="1">
          <mxGeometry x="1273" y="1425" width="20" height="20" as="geometry" />
        </mxCell>
        <mxCell id="KPxbSoKMguSiklrnjxVH-36" value="" style="endArrow=none;html=1;rounded=0;exitX=1;exitY=0.5;exitDx=0;exitDy=0;exitPerimeter=0;entryX=1;entryY=0.5;entryDx=0;entryDy=0;entryPerimeter=0;" edge="1" parent="1" target="KPxbSoKMguSiklrnjxVH-35">
          <mxGeometry width="50" height="50" relative="1" as="geometry">
            <mxPoint x="1193" y="1434.5" as="sourcePoint" />
            <mxPoint x="1223" y="1514.5" as="targetPoint" />
          </mxGeometry>
        </mxCell>
        <mxCell id="KPxbSoKMguSiklrnjxVH-37" value="PC" style="text;html=1;align=center;verticalAlign=middle;whiteSpace=wrap;rounded=0;fillColor=none;" vertex="1" parent="1">
          <mxGeometry x="1293" y="1420" width="60" height="30" as="geometry" />
        </mxCell>
        <mxCell id="KPxbSoKMguSiklrnjxVH-44" style="edgeStyle=orthogonalEdgeStyle;rounded=0;orthogonalLoop=1;jettySize=auto;html=1;entryX=0.5;entryY=0;entryDx=0;entryDy=0;" edge="1" parent="1" source="KPxbSoKMguSiklrnjxVH-12" target="KPxbSoKMguSiklrnjxVH-45">
          <mxGeometry relative="1" as="geometry" />
        </mxCell>
        <mxCell id="KPxbSoKMguSiklrnjxVH-45" value="rd" style="text;html=1;align=center;verticalAlign=middle;whiteSpace=wrap;rounded=0;" vertex="1" parent="1">
          <mxGeometry x="221" y="1360" width="60" height="10" as="geometry" />
        </mxCell>
        <mxCell id="KPxbSoKMguSiklrnjxVH-46" value="rd" style="text;html=1;align=center;verticalAlign=middle;whiteSpace=wrap;rounded=0;" vertex="1" parent="1">
          <mxGeometry x="221" y="1530" width="60" height="10" as="geometry" />
        </mxCell>
        <mxCell id="KPxbSoKMguSiklrnjxVH-47" style="edgeStyle=orthogonalEdgeStyle;rounded=0;orthogonalLoop=1;jettySize=auto;html=1;entryX=0.5;entryY=0;entryDx=0;entryDy=0;" edge="1" parent="1" source="KPxbSoKMguSiklrnjxVH-13" target="KPxbSoKMguSiklrnjxVH-46">
          <mxGeometry relative="1" as="geometry" />
        </mxCell>
        <mxCell id="KPxbSoKMguSiklrnjxVH-48" value="" style="rounded=0;whiteSpace=wrap;html=1;" vertex="1" parent="1">
          <mxGeometry x="413" y="1365" width="590" height="215" as="geometry" />
        </mxCell>
        <mxCell id="KPxbSoKMguSiklrnjxVH-49" value="CONTROLLER" style="text;strokeColor=none;fillColor=none;html=1;fontSize=24;fontStyle=1;verticalAlign=middle;align=center;" vertex="1" parent="1">
          <mxGeometry x="413" y="1325" width="200" height="40" as="geometry" />
        </mxCell>
        <mxCell id="KPxbSoKMguSiklrnjxVH-50" value="" style="rounded=0;whiteSpace=wrap;html=1;" vertex="1" parent="1">
          <mxGeometry x="864" y="1420" width="120" height="60" as="geometry" />
        </mxCell>
        <mxCell id="KPxbSoKMguSiklrnjxVH-51" value="DECODER" style="text;strokeColor=none;fillColor=none;html=1;fontSize=24;fontStyle=1;verticalAlign=middle;align=center;" vertex="1" parent="1">
          <mxGeometry x="863" y="1380" width="121" height="40" as="geometry" />
        </mxCell>
        <mxCell id="KPxbSoKMguSiklrnjxVH-52" value="CONDLOGIC" style="text;strokeColor=none;fillColor=none;html=1;fontSize=24;fontStyle=1;verticalAlign=middle;align=center;" vertex="1" parent="1">
          <mxGeometry x="433" y="1369" width="150" height="40" as="geometry" />
        </mxCell>
        <mxCell id="KPxbSoKMguSiklrnjxVH-53" value="" style="rounded=0;whiteSpace=wrap;html=1;" vertex="1" parent="1">
          <mxGeometry x="433" y="1409" width="410" height="151" as="geometry" />
        </mxCell>
        <mxCell id="KPxbSoKMguSiklrnjxVH-54" value="" style="rounded=0;whiteSpace=wrap;html=1;" vertex="1" parent="1">
          <mxGeometry x="463" y="1450" width="140" height="50" as="geometry" />
        </mxCell>
        <mxCell id="KPxbSoKMguSiklrnjxVH-55" value="" style="rounded=0;whiteSpace=wrap;html=1;" vertex="1" parent="1">
          <mxGeometry x="653" y="1450" width="150" height="50" as="geometry" />
        </mxCell>
        <mxCell id="KPxbSoKMguSiklrnjxVH-56" value="CONDCHECK" style="text;strokeColor=none;fillColor=none;html=1;fontSize=24;fontStyle=1;verticalAlign=middle;align=center;" vertex="1" parent="1">
          <mxGeometry x="653" y="1419" width="148.5" height="30" as="geometry" />
        </mxCell>
        <mxCell id="KPxbSoKMguSiklrnjxVH-57" value="FLOPENR" style="text;strokeColor=none;fillColor=none;html=1;fontSize=24;fontStyle=1;verticalAlign=middle;align=center;" vertex="1" parent="1">
          <mxGeometry x="458.75" y="1421" width="148.5" height="29" as="geometry" />
        </mxCell>
        <mxCell id="KPxbSoKMguSiklrnjxVH-59" style="edgeStyle=orthogonalEdgeStyle;rounded=0;orthogonalLoop=1;jettySize=auto;html=1;exitX=0.5;exitY=1;exitDx=0;exitDy=0;" edge="1" parent="1" source="KPxbSoKMguSiklrnjxVH-54" target="KPxbSoKMguSiklrnjxVH-60">
          <mxGeometry relative="1" as="geometry">
            <mxPoint x="533" y="1507.73" as="sourcePoint" />
            <mxPoint x="533" y="1510" as="targetPoint" />
          </mxGeometry>
        </mxCell>
        <mxCell id="KPxbSoKMguSiklrnjxVH-60" value="q" style="text;html=1;align=center;verticalAlign=middle;whiteSpace=wrap;rounded=0;" vertex="1" parent="1">
          <mxGeometry x="508" y="1530" width="50" height="20" as="geometry" />
        </mxCell>
        <mxCell id="KPxbSoKMguSiklrnjxVH-61" value="" style="rounded=0;whiteSpace=wrap;html=1;" vertex="1" parent="1">
          <mxGeometry x="413" y="1670" width="600" height="800" as="geometry" />
        </mxCell>
        <mxCell id="KPxbSoKMguSiklrnjxVH-62" value="DATA PATH" style="text;strokeColor=none;fillColor=none;html=1;fontSize=24;fontStyle=1;verticalAlign=middle;align=center;" vertex="1" parent="1">
          <mxGeometry x="413" y="1630" width="160" height="40" as="geometry" />
        </mxCell>
        <mxCell id="KPxbSoKMguSiklrnjxVH-63" value="" style="rounded=0;whiteSpace=wrap;html=1;" vertex="1" parent="1">
          <mxGeometry x="438" y="1724" width="120" height="60" as="geometry" />
        </mxCell>
        <mxCell id="KPxbSoKMguSiklrnjxVH-64" value="" style="rounded=0;whiteSpace=wrap;html=1;" vertex="1" parent="1">
          <mxGeometry x="438" y="1844.75" width="120" height="60" as="geometry" />
        </mxCell>
        <mxCell id="KPxbSoKMguSiklrnjxVH-65" value="" style="rounded=0;whiteSpace=wrap;html=1;" vertex="1" parent="1">
          <mxGeometry x="438" y="1970" width="120" height="60" as="geometry" />
        </mxCell>
        <mxCell id="KPxbSoKMguSiklrnjxVH-66" value="" style="rounded=0;whiteSpace=wrap;html=1;" vertex="1" parent="1">
          <mxGeometry x="438" y="2090" width="120" height="70" as="geometry" />
        </mxCell>
        <mxCell id="KPxbSoKMguSiklrnjxVH-68" value="" style="rounded=0;whiteSpace=wrap;html=1;" vertex="1" parent="1">
          <mxGeometry x="438" y="2220" width="120" height="60" as="geometry" />
        </mxCell>
        <mxCell id="KPxbSoKMguSiklrnjxVH-69" value="" style="rounded=0;whiteSpace=wrap;html=1;" vertex="1" parent="1">
          <mxGeometry x="438" y="2360" width="120" height="70" as="geometry" />
        </mxCell>
        <mxCell id="KPxbSoKMguSiklrnjxVH-70" value="MUX2" style="text;strokeColor=none;fillColor=none;html=1;fontSize=24;fontStyle=1;verticalAlign=middle;align=center;" vertex="1" parent="1">
          <mxGeometry x="448" y="1684" width="100" height="40" as="geometry" />
        </mxCell>
        <mxCell id="KPxbSoKMguSiklrnjxVH-71" value="FLOPR" style="text;strokeColor=none;fillColor=none;html=1;fontSize=24;fontStyle=1;verticalAlign=middle;align=center;" vertex="1" parent="1">
          <mxGeometry x="448" y="1804.75" width="100" height="40" as="geometry" />
        </mxCell>
        <mxCell id="KPxbSoKMguSiklrnjxVH-72" value="ADDER" style="text;strokeColor=none;fillColor=none;html=1;fontSize=24;fontStyle=1;verticalAlign=middle;align=center;" vertex="1" parent="1">
          <mxGeometry x="448" y="1930" width="100" height="40" as="geometry" />
        </mxCell>
        <mxCell id="KPxbSoKMguSiklrnjxVH-73" value="REGFILE" style="text;strokeColor=none;fillColor=none;html=1;fontSize=24;fontStyle=1;verticalAlign=middle;align=center;" vertex="1" parent="1">
          <mxGeometry x="448" y="2050" width="100" height="40" as="geometry" />
        </mxCell>
        <mxCell id="KPxbSoKMguSiklrnjxVH-74" value="EXTEND" style="text;strokeColor=none;fillColor=none;html=1;fontSize=24;fontStyle=1;verticalAlign=middle;align=center;" vertex="1" parent="1">
          <mxGeometry x="448" y="2180" width="100" height="40" as="geometry" />
        </mxCell>
        <mxCell id="KPxbSoKMguSiklrnjxVH-75" value="ALU" style="text;strokeColor=none;fillColor=none;html=1;fontSize=24;fontStyle=1;verticalAlign=middle;align=center;" vertex="1" parent="1">
          <mxGeometry x="448" y="2310" width="100" height="40" as="geometry" />
        </mxCell>
        <mxCell id="KPxbSoKMguSiklrnjxVH-76" value="" style="endArrow=none;html=1;rounded=0;exitX=1;exitY=0.5;exitDx=0;exitDy=0;entryX=0;entryY=0.5;entryDx=0;entryDy=0;" edge="1" parent="1" target="KPxbSoKMguSiklrnjxVH-78">
          <mxGeometry width="50" height="50" relative="1" as="geometry">
            <mxPoint x="558" y="2380.2" as="sourcePoint" />
            <mxPoint x="573" y="2380" as="targetPoint" />
          </mxGeometry>
        </mxCell>
        <mxCell id="KPxbSoKMguSiklrnjxVH-77" value="" style="endArrow=none;html=1;rounded=0;exitX=1;exitY=0.5;exitDx=0;exitDy=0;entryX=0;entryY=0.5;entryDx=0;entryDy=0;" edge="1" parent="1" target="KPxbSoKMguSiklrnjxVH-79">
          <mxGeometry width="50" height="50" relative="1" as="geometry">
            <mxPoint x="558" y="2410" as="sourcePoint" />
            <mxPoint x="573" y="2410" as="targetPoint" />
          </mxGeometry>
        </mxCell>
        <mxCell id="KPxbSoKMguSiklrnjxVH-78" value="ALUFlags" style="text;html=1;align=center;verticalAlign=middle;whiteSpace=wrap;rounded=0;" vertex="1" parent="1">
          <mxGeometry x="583" y="2370" width="70" height="20" as="geometry" />
        </mxCell>
        <mxCell id="KPxbSoKMguSiklrnjxVH-79" value="Result" style="text;html=1;align=center;verticalAlign=middle;whiteSpace=wrap;rounded=0;" vertex="1" parent="1">
          <mxGeometry x="583" y="2400" width="50" height="20" as="geometry" />
        </mxCell>
        <mxCell id="KPxbSoKMguSiklrnjxVH-80" value="" style="endArrow=none;html=1;rounded=0;exitX=1;exitY=0.5;exitDx=0;exitDy=0;entryX=0;entryY=0.5;entryDx=0;entryDy=0;" edge="1" parent="1">
          <mxGeometry width="50" height="50" relative="1" as="geometry">
            <mxPoint x="558" y="2249.91" as="sourcePoint" />
            <mxPoint x="583" y="2249.71" as="targetPoint" />
          </mxGeometry>
        </mxCell>
        <mxCell id="KPxbSoKMguSiklrnjxVH-81" value="ExtImm" style="text;html=1;align=center;verticalAlign=middle;whiteSpace=wrap;rounded=0;" vertex="1" parent="1">
          <mxGeometry x="583" y="2240" width="50" height="20" as="geometry" />
        </mxCell>
        <mxCell id="KPxbSoKMguSiklrnjxVH-82" value="" style="endArrow=none;html=1;rounded=0;exitX=1;exitY=0.5;exitDx=0;exitDy=0;entryX=0;entryY=0.5;entryDx=0;entryDy=0;" edge="1" parent="1">
          <mxGeometry width="50" height="50" relative="1" as="geometry">
            <mxPoint x="558" y="2140.2" as="sourcePoint" />
            <mxPoint x="583" y="2140" as="targetPoint" />
          </mxGeometry>
        </mxCell>
        <mxCell id="KPxbSoKMguSiklrnjxVH-83" value="" style="endArrow=none;html=1;rounded=0;exitX=1;exitY=0.5;exitDx=0;exitDy=0;entryX=0;entryY=0.5;entryDx=0;entryDy=0;" edge="1" parent="1">
          <mxGeometry width="50" height="50" relative="1" as="geometry">
            <mxPoint x="558" y="2109.96" as="sourcePoint" />
            <mxPoint x="583" y="2109.76" as="targetPoint" />
          </mxGeometry>
        </mxCell>
        <mxCell id="KPxbSoKMguSiklrnjxVH-84" value="rd1" style="text;html=1;align=center;verticalAlign=middle;whiteSpace=wrap;rounded=0;" vertex="1" parent="1">
          <mxGeometry x="583" y="2100" width="30" height="20" as="geometry" />
        </mxCell>
        <mxCell id="KPxbSoKMguSiklrnjxVH-85" value="rd2" style="text;html=1;align=center;verticalAlign=middle;whiteSpace=wrap;rounded=0;" vertex="1" parent="1">
          <mxGeometry x="583" y="2130" width="30" height="20" as="geometry" />
        </mxCell>
        <mxCell id="KPxbSoKMguSiklrnjxVH-86" value="" style="endArrow=none;html=1;rounded=0;exitX=1;exitY=0.5;exitDx=0;exitDy=0;entryX=0;entryY=0.5;entryDx=0;entryDy=0;" edge="1" parent="1">
          <mxGeometry width="50" height="50" relative="1" as="geometry">
            <mxPoint x="558" y="1999.96" as="sourcePoint" />
            <mxPoint x="583" y="1999.7600000000002" as="targetPoint" />
          </mxGeometry>
        </mxCell>
        <mxCell id="KPxbSoKMguSiklrnjxVH-87" value="y" style="text;html=1;align=center;verticalAlign=middle;whiteSpace=wrap;rounded=0;" vertex="1" parent="1">
          <mxGeometry x="583" y="1990" width="20" height="20" as="geometry" />
        </mxCell>
        <mxCell id="KPxbSoKMguSiklrnjxVH-89" value="" style="endArrow=none;html=1;rounded=0;exitX=1;exitY=0.5;exitDx=0;exitDy=0;entryX=0;entryY=0.5;entryDx=0;entryDy=0;" edge="1" parent="1">
          <mxGeometry width="50" height="50" relative="1" as="geometry">
            <mxPoint x="558" y="1753.96" as="sourcePoint" />
            <mxPoint x="583" y="1753.7600000000002" as="targetPoint" />
          </mxGeometry>
        </mxCell>
        <mxCell id="KPxbSoKMguSiklrnjxVH-90" value="y" style="text;html=1;align=center;verticalAlign=middle;whiteSpace=wrap;rounded=0;" vertex="1" parent="1">
          <mxGeometry x="583" y="1744" width="20" height="20" as="geometry" />
        </mxCell>
        <mxCell id="KPxbSoKMguSiklrnjxVH-91" value="" style="endArrow=none;html=1;rounded=0;exitX=1;exitY=0.5;exitDx=0;exitDy=0;entryX=0;entryY=0.5;entryDx=0;entryDy=0;" edge="1" parent="1">
          <mxGeometry width="50" height="50" relative="1" as="geometry">
            <mxPoint x="558" y="1874.81" as="sourcePoint" />
            <mxPoint x="583" y="1874.6100000000001" as="targetPoint" />
          </mxGeometry>
        </mxCell>
        <mxCell id="KPxbSoKMguSiklrnjxVH-92" value="q" style="text;html=1;align=center;verticalAlign=middle;whiteSpace=wrap;rounded=0;" vertex="1" parent="1">
          <mxGeometry x="583" y="1864.75" width="20" height="20" as="geometry" />
        </mxCell>
      </root>
    </mxGraphModel>
  </diagram>
</mxfile>
